<svg width="512" height="512" viewBox="0 0 512 512" fill="none" xmlns="http://www.w3.org/2000/svg">
<rect width="512" height="512" rx="102.4" fill="#1A1A1A"/>
<g clip-path="url(#clip0_1_2)">
<path d="M298.667 101.333C298.667 95.7118 294.288 91.333 288.667 91.333C283.045 91.333 278.667 95.7118 278.667 101.333V176H256V101.333C256 95.7118 251.621 91.333 246 91.333C240.379 91.333 236 95.7118 236 101.333V176H213.333V101.333C213.333 95.7118 208.955 91.333 203.333 91.333C197.712 91.333 193.333 95.7118 193.333 101.333V186.667C193.333 228.324 226.343 261.333 268 261.333H298.667C304.288 261.333 308.667 256.955 308.667 251.333C308.667 245.712 304.288 241.333 298.667 241.333H268C237.19 241.333 213.333 217.476 213.333 186.667V196H236V261.333C236 272.379 244.954 281.333 256 281.333C267.046 281.333 276 272.379 276 261.333V196H298.667V282.723C316.513 302.247 325.299 326.833 325.333 352V352V352.001C325.333 393.658 292.324 426.667 250.667 426.667C209.01 426.667 176 393.658 176 352.001V288C176 282.379 180.379 278 186 278C191.621 278 196 282.379 196 288V352.001C196 382.811 220.19 406.667 250.667 406.667C281.476 406.667 305.333 382.811 305.333 352.001V352V352C305.297 333.649 298.918 316.143 287.697 302.057L298.667 289.467V101.333Z" fill="#FFB300"/>
</g>
<defs>
<clipPath id="clip0_1_2">
<rect width="256" height="341.333" fill="white" transform="translate(128 85.333)"/>
</clipPath>
</defs>
</svg>