<svg width="64" height="64" viewBox="0 0 64 64" fill="none" xmlns="http://www.w3.org/2000/svg">
<rect width="64" height="64" rx="12" fill="#333333"/>
<path d="M23.46,17.613c-0.825,0-1.493,0.669-1.493,1.493v10.453h-2.987c-0.825,0-1.493,0.669-1.493,1.493s0.669,1.493,1.493,1.493h2.987v10.453c0,2.883,2.34,5.22,5.22,5.22h0.747v-2.987h-0.747c-1.23,0-2.233-1.003-2.233-2.233V32.547h11.167v10.453c0,1.23-1.003,2.233-2.233,2.233h-0.747v2.987h0.747c2.883,0,5.22-2.34,5.22-5.22V32.547h2.987c0.825,0,1.493-0.669,1.493-1.493s-0.669-1.493-1.493-1.493h-2.987V19.107c0-0.825-0.669-1.493-1.493-1.493H23.46z" fill="#F9A826"/>
<path d="M38.28,17.613c-0.825,0-1.493,0.669-1.493,1.493v10.453h-2.987c-0.825,0-1.493,0.669-1.493,1.493s0.669,1.493,1.493,1.493h2.987v10.453c0,2.883,2.34,5.22,5.22,5.22h0.747v-2.987h-0.747c-1.23,0-2.233-1.003-2.233-2.233V32.547h2.987c0.825,0,1.493-0.669,1.493-1.493s-0.669-1.493-1.493-1.493h-2.987V19.107c0-0.825-0.669-1.493-1.493-1.493h-1.493z" fill="#F9A826" transform="translate(6,0) scale(0.9)"/>
<path d="M43.08,44.5h-22.16c-0.825,0-1.493-0.669-1.493-1.493V32.547h25.147v10.453C44.573,43.831,43.905,44.5,43.08,44.5z" fill="#333333"/>
<path d="M32,32.547c-4.125,0-7.467,3.342-7.467,7.467s3.342,7.467,7.467,7.467s7.467-3.342,7.467-7.467S36.125,32.547,32,32.547z M32,45.48c-3.281,0-5.973-2.692-5.973-5.973s2.692-5.973,5.973-5.973s5.973,2.692,5.973,5.973S35.281,45.48,32,45.48z" fill="white"/>
<path d="M32.747,34.04h-1.493c-0.413,0-0.747,0.334-0.747,0.747s0.334,0.747,0.747,0.747h1.493c0.413,0,0.747-0.334,0.747-0.747S33.16,34.04,32.747,34.04z" fill="white"/>
<path d="M32.747,42.493h-1.493c-0.413,0-0.747,0.334-0.747,0.747s0.334,0.747,0.747,0.747h1.493c0.413,0,0.747-0.334,0.747-0.747S33.16,42.493,32.747,42.493z" fill="white"/>
<path d="M28.267,35.533h-0.747c-0.413,0-0.747,0.334-0.747,0.747v5.22c0,0.413,0.334,0.747,0.747,0.747h0.747c0.413,0,0.747-0.334,0.747-0.747v-5.22C29.013,35.867,28.68,35.533,28.267,35.533z" fill="white"/>
<path d="M36.48,35.533h-0.747c-0.413,0-0.747,0.334-0.747,0.747v5.22c0,0.413,0.334,0.747,0.747,0.747h0.747c0.413,0,0.747-0.334,0.747-0.747v-5.22C37.227,35.867,36.893,35.533,36.48,35.533z" fill="white"/>
<path d="M26.773,38.52c-0.256,0-0.512-0.098-0.707-0.293l-1.493-1.493c-0.391-0.391-0.391-1.024,0-1.414s1.024-0.391,1.414,0l1.493,1.493c0.391,0.391,0.391,1.024,0,1.414C27.285,38.422,27.029,38.52,26.773,38.52z" fill="white"/>
<path d="M38.72,38.52c-0.256,0-0.512-0.098-0.707-0.293c-0.391-0.391-0.391-1.024,0-1.414l1.493-1.493c0.391-0.391,1.024-0.391,1.414,0s0.391,1.024,0,1.414l-1.493,1.493C39.232,38.422,38.976,38.52,38.72,38.52z" fill="white"/>
<path d="M30.5,41.507c-0.256,0-0.512-0.098-0.707-0.293l-1.493-1.493c-0.391-0.391-0.391-1.024,0-1.414s1.024-0.391,1.414,0l1.493,1.493c0.391,0.391,0.391,1.024,0,1.414C31.012,41.409,30.756,41.507,30.5,41.507z" fill="white"/>
<path d="M34.987,41.507c-0.256,0-0.512-0.098-0.707-0.293c-0.391-0.391-0.391-1.024,0-1.414l1.493-1.493c0.391-0.391,1.024-0.391,1.414,0s0.391,1.024,0,1.414l-1.493,1.493C35.5,41.409,35.243,41.507,34.987,41.507z" fill="white"/>
<path d="M26.773,44.5c-0.256,0-0.512-0.098-0.707-0.293c-0.391-0.391-0.391-1.024,0-1.414l1.493-1.493c0.391-0.391,1.024-0.391,1.414,0s0.391,1.024,0,1.414l-1.493,1.493C27.285,44.402,27.029,44.5,26.773,44.5z" fill="white"/>
<path d="M38.72,44.5c-0.256,0-0.512-0.098-0.707-0.293l-1.493-1.493c-0.391-0.391,0-1.414,1.414-1.414s1.024,0.391,1.414,0l1.493,1.493c0.391,0.391,0.391,1.024,0,1.414C39.232,44.402,38.976,44.5,38.72,44.5z" fill="white"/>
<path d="M25.16,33.287c-0.256,0-0.512-0.098-0.707-0.293l-1.493-1.493c-0.391-0.391-0.391-1.024,0-1.414s1.024-0.391,1.414,0l1.493,1.493c0.391,0.391,0.391,1.024,0,1.414C25.672,33.189,25.416,33.287,25.16,33.287z" fill="white"/>
<path d="M40.333,33.287c-0.256,0-0.512-0.098-0.707-0.293c-0.391-0.391-0.391-1.024,0-1.414l1.493-1.493c0.391-0.391,1.024-0.391,1.414,0s0.391,1.024,0,1.414l-1.493,1.493C40.845,33.189,40.589,33.287,40.333,33.287z" fill="white"/>
<text x="50%" y="56" dominant-baseline="middle" text-anchor="middle" font-family="Roboto Condensed, sans-serif" font-size="10" fill="white" font-weight="bold">Chika</text>
</svg>
    