<svg width="64" height="64" viewBox="0 0 64 64" fill="none" xmlns="http://www.w3.org/2000/svg">
<rect width="64" height="64" rx="12" fill="#FFC107"/>
<path d="M48 20C48 17.7909 46.2091 16 44 16H20C17.7909 16 16 17.7909 16 20V44C16 46.2091 17.7909 48 20 48H44C46.2091 48 48 46.2091 48 44V20Z" fill="#1A1A1A"/>
<circle cx="27" cy="27" r="4" fill="#FFC107"/>
<circle cx="37" cy="27" r="4" fill="#FFC107"/>
<path d="M24 40C24 38.3431 25.3431 37 27 37H37C38.6569 37 40 38.3431 40 40C40 41.6569 38.6569 43 37 43H27C25.3431 43 24 41.6569 24 40Z" fill="#FFC107"/>
</svg>
