<svg width="512" height="512" viewBox="0 0 512 512" fill="none" xmlns="http://www.w3.org/2000/svg">
<rect width="512" height="512" rx="109.286" fill="#333333"/>
<g filter="url(#filter0_d_1_2)">
<path d="M210.057 122.286V153.714C210.057 167.045 200.725 178.286 189.2 178.286H170.8V352H189.2C200.725 352 210.057 363.241 210.057 376.571V408H140.286V122.286H210.057Z" fill="#FACC15"/>
<path d="M304.743 122.286V153.714C304.743 167.045 314.075 178.286 325.6 178.286H344V352H325.6C314.075 352 304.743 363.241 304.743 376.571V408H374.457V122.286H304.743Z" fill="#FACC15"/>
</g>
<g filter="url(#filter1_d_1_2)">
<path fill-rule="evenodd" clip-rule="evenodd" d="M256 195C245.717 195 237.286 202.261 237.286 211.102V222.095C237.286 222.686 237.755 223.167 238.331 223.167H242.057C242.49 223.167 242.857 223.543 242.857 224V226.286C242.857 226.743 242.49 227.119 242.057 227.119H238.331C237.755 227.119 237.286 227.599 237.286 228.19V239.184C237.286 239.774 237.755 240.255 238.331 240.255H242.057C242.49 240.255 242.857 240.631 242.857 241.088V243.372C242.857 243.829 242.49 244.205 242.057 244.205H238.331C237.755 244.205 237.286 244.686 237.286 245.276V256.269C237.286 256.859 237.755 257.34 238.331 257.34H242.057C242.49 257.34 242.857 257.716 242.857 258.173V260.457C242.857 260.914 242.49 261.29 242.057 261.29H238.331C237.755 261.29 237.286 261.771 237.286 262.361V273.354C237.286 273.944 237.755 274.425 238.331 274.425H242.057C242.49 274.425 242.857 274.801 242.857 275.258V277.543C242.857 278 242.49 278.376 242.057 278.376H238.331C237.755 278.376 237.286 278.857 237.286 279.447V290.44C237.286 291.03 237.755 291.511 238.331 291.511H242.057C242.49 291.511 242.857 291.887 242.857 292.344V294.628C242.857 295.085 242.49 295.461 242.057 295.461H238.331C237.755 295.461 237.286 295.942 237.286 296.532V307.526C237.286 308.116 237.755 308.597 238.331 308.597H242.057C242.49 308.597 242.857 308.973 242.857 309.43V311.714C242.857 312.171 242.49 312.547 242.057 312.547H238.331C237.755 312.547 237.286 313.028 237.286 313.618V318H256H274.714V313.618C274.714 313.028 274.245 312.547 273.669 312.547H269.943C269.51 312.547 269.143 312.171 269.143 311.714V309.43C269.143 308.973 269.51 308.597 269.943 308.597H273.669C274.245 308.597 274.714 308.116 274.714 307.526V296.532C274.714 295.942 274.245 295.461 273.669 295.461H269.943C269.51 295.461 269.143 295.085 269.143 294.628V292.344C269.143 291.887 269.51 291.511 269.943 291.511H273.669C274.245 291.511 274.714 291.03 274.714 290.44V279.447C274.714 278.857 274.245 278.376 273.669 278.376H269.943C269.51 278.376 269.143 278 269.143 277.543V275.258C269.143 274.801 269.51 274.425 269.943 274.425H273.669C274.245 274.425 274.714 273.944 274.714 273.354V262.361C274.714 261.771 274.245 261.29 273.669 261.29H269.943C269.51 261.29 269.143 260.914 269.143 260.457V258.173C269.143 257.716 269.51 257.34 269.943 257.34H273.669C274.245 257.34 274.714 256.859 274.714 256.269V245.276C274.714 244.686 274.245 244.205 273.669 244.205H269.943C269.51 244.205 269.143 243.829 269.143 243.372V241.088C269.143 240.631 269.51 240.255 269.943 240.255H273.669C274.245 240.255 274.714 239.774 274.714 239.184V228.19C274.714 227.599 274.245 227.119 273.669 227.119H269.943C269.51 227.119 269.143 226.743 269.143 226.286V224C269.143 223.543 269.51 223.167 269.943 223.167H273.669C274.245 223.167 274.714 222.686 274.714 222.095V211.102C274.714 202.261 266.283 195 256 195Z" fill="white"/>
<path d="M256 318V313.618C256 313.028 255.531 312.547 254.956 312.547H251.229C250.796 312.547 250.429 312.171 250.429 311.714V309.43C250.429 308.973 250.796 308.597 251.229 308.597H254.956C255.531 308.597 256 308.116 256 307.526V296.532C256 295.942 255.531 295.461 254.956 295.461H251.229C250.796 295.461 250.429 295.085 250.429 294.628V292.344C250.429 291.887 250.796 291.511 251.229 291.511H254.956C255.531 291.511 256 291.03 256 290.44V279.447C256 278.857 255.531 278.376 254.956 278.376H251.229C250.796 278.376 250.429 278 250.429 277.543V275.258C250.429 274.801 250.796 274.425 251.229 274.425H254.956C255.531 274.425 256 273.944 256 273.354V262.361C256 261.771 255.531 261.29 254.956 261.29H251.229C250.796 261.29 250.429 260.914 250.429 260.457V258.173C250.429 257.716 250.796 257.34 251.229 257.34H254.956C255.531 257.34 256 256.859 256 256.269V245.276C256 244.686 255.531 244.205 254.956 244.205H251.229C250.796 244.205 250.429 243.829 250.429 243.372V241.088C250.429 240.631 250.796 240.255 251.229 240.255H254.956C255.531 240.255 256 239.774 256 239.184V228.19C256 227.599 255.531 227.119 254.956 227.119H251.229C250.796 227.119 250.429 226.743 250.429 226.286V224C250.429 223.543 250.796 223.167 251.229 223.167H254.956C255.531 223.167 256 222.686 256 222.095V211.102C256 202.261 247.571 195 237.286 211.102V318H256Z" fill="#F0F0F0"/>
<path d="M256 318V313.618C256 313.028 256.469 312.547 257.044 312.547H260.771C261.204 312.547 261.571 312.171 261.571 311.714V309.43C261.571 308.973 261.204 308.597 260.771 308.597H257.044C256.469 308.597 256 308.116 256 307.526V296.532C256 295.942 256.469 295.461 257.044 295.461H260.771C261.204 295.461 261.571 295.085 261.571 294.628V292.344C261.571 291.887 261.204 291.511 260.771 291.511H257.044C256.469 291.511 256 291.03 256 290.44V279.447C256 278.857 256.469 278.376 257.044 278.376H260.771C261.204 278.376 261.571 278 261.571 277.543V275.258C261.571 274.801 261.204 274.425 260.771 274.425H257.044C256.469 274.425 256 273.944 256 273.354V262.361C256 261.771 256.469 261.29 257.044 261.29H260.771C261.204 261.29 261.571 260.914 261.571 260.457V258.173C261.571 257.716 261.204 257.34 260.771 257.34H257.044C256.469 257.34 256 256.859 256 256.269V245.276C256 244.686 256.469 244.205 257.044 244.205H260.771C261.204 244.205 261.571 243.829 261.571 243.372V241.088C261.571 240.631 261.204 240.255 260.771 240.255H257.044C256.469 240.255 256 239.774 256 239.184V228.19C256 227.599 256.469 227.119 257.044 227.119H260.771C261.204 227.119 261.571 226.743 261.571 226.286V224C261.571 223.543 261.204 223.167 260.771 223.167H257.044C256.469 223.167 256 222.686 256 222.095V211.102C256 202.261 264.429 195 274.714 211.102V318H256Z" fill="#F0F0F0"/>
<path d="M256 205.857C261.258 205.857 265.571 209.613 265.571 214.286C265.571 218.959 261.258 222.714 256 222.714C250.742 222.714 246.429 218.959 246.429 214.286C246.429 209.613 250.742 205.857 256 205.857Z" fill="#333333"/>
<path d="M256 205.857C261.258 205.857 265.571 209.613 265.571 214.286V222.714H246.429V214.286C246.429 209.613 250.742 205.857 256 205.857Z" fill="lightgray"/>
<path d="M256 237.571C261.258 237.571 265.571 241.327 265.571 246C265.571 250.673 261.258 254.429 256 254.429C250.742 254.429 246.429 250.673 246.429 246C246.429 241.327 250.742 237.571 256 237.571Z" fill="#333333"/>
<path d="M256 237.571C261.258 237.571 265.571 241.327 265.571 246V254.429H246.429V246C246.429 241.327 250.742 237.571 256 237.571Z" fill="lightgray"/>
<path d="M256 269.286C261.258 269.286 265.571 273.041 265.571 277.714C265.571 282.387 261.258 286.143 256 286.143C250.742 286.143 246.429 282.387 246.429 277.714C246.429 273.041 250.742 269.286 256 269.286Z" fill="#333333"/>
<path d="M256 269.286C261.258 269.286 265.571 273.041 265.571 277.714V286.143H246.429V277.714C246.429 273.041 250.742 269.286 256 269.286Z" fill="lightgray"/>
<path d="M256 301C261.258 301 265.571 304.755 265.571 309.429C265.571 314.101 261.258 317.857 256 317.857C250.742 317.857 246.429 314.101 246.429 309.429C246.429 304.755 250.742 301 256 301Z" fill="#333333"/>
<path d="M256 301C261.258 301 265.571 304.755 265.571 309.429V317.857H246.429V309.429C246.429 304.755 250.742 301 256 301Z" fill="lightgray"/>
</g>
<text fill="white" xml:space="preserve" style="white-space: pre" font-family="Roboto Condensed" font-size="64" font-weight="bold" letter-spacing="0.05em"><tspan x="175.558" y="388.357">Chika</tspan></text>
<defs>
<filter id="filter0_d_1_2" x="136.286" y="122.286" width="242.171" height="293.714" filterUnits="userSpaceOnUse" color-interpolation-filters="sRGB">
<feFlood flood-opacity="0" result="BackgroundImageFix"/>
<feColorMatrix in="SourceAlpha" type="matrix" values="0 0 0 0 0 0 0 0 0 0 0 0 0 0 0 0 0 0 127 0" result="hardAlpha"/>
<feOffset dy="4"/>
<feGaussianBlur stdDeviation="2"/>
<feComposite in2="hardAlpha" operator="out"/>
<feColorMatrix type="matrix" values="0 0 0 0 0 0 0 0 0 0 0 0 0 0 0 0 0 0 0.25 0"/>
<feBlend mode="normal" in2="BackgroundImageFix" result="effect1_dropShadow_1_2"/>
<feBlend mode="normal" in="SourceGraphic" in2="effect1_dropShadow_1_2" result="shape"/>
</filter>
<filter id="filter1_d_1_2" x="233.286" y="195" width="45.4287" height="131" filterUnits="userSpaceOnUse" color-interpolation-filters="sRGB">
<feFlood flood-opacity="0" result="BackgroundImageFix"/>
<feColorMatrix in="SourceAlpha" type="matrix" values="0 0 0 0 0 0 0 0 0 0 0 0 0 0 0 0 0 0 127 0" result="hardAlpha"/>
<feOffset dy="4"/>
<feGaussianBlur stdDeviation="2"/>
<feComposite in2="hardAlpha" operator="out"/>
<feColorMatrix type="matrix" values="0 0 0 0 0 0 0 0 0 0 0 0 0 0 0 0 0 0 0.25 0"/>
<feBlend mode="normal" in2="BackgroundImageFix" result="effect1_dropShadow_1_2"/>
<feBlend mode="normal" in="SourceGraphic" in2="effect1_dropShadow_1_2" result="shape"/>
</filter>
</defs>
</svg>